<svg xmlns="http://www.w3.org/2000/svg" style="isolation:isolate" viewBox="0 0 256 256"><defs><clipPath id="a"><path d="M0 0h256v256H0z"/></clipPath></defs><g clip-path="url(#a)"><path fill="#FFBDDE" d="M95.429 154.055c-3.332 5.798-5.252 10.953-5.789 15.438-1.453 7.067-3.051 12.544-4.824 16.402-1.149 2.572-3.069 4.833-5.789 6.753l11.578 50.171 16.402-10.613 36.663-3.859c13.54 10.298 22.877 16.418 29.91 18.332l9.648-54.031c-9.693-.075-17.365-6.987-18.332-18.331l-69.467-20.262z"/><ellipse cx="131.021" cy="207.121" fill="#FFD8EC" rx="17.474" ry="27.98" vector-effect="non-scaling-stroke"/><path fill="#E3579D" d="M45.62 225.086c-3.229-16.528 6.094-32.28 20.807-35.154 14.713-2.874 29.279 8.211 32.508 24.739 3.229 16.528-6.095 32.28-20.807 35.154-14.713 2.875-29.279-8.211-32.508-24.739z"/><path fill="#FFA6D3" d="M45.226 223.074c-3.011-15.417 5.685-30.111 19.409-32.792 13.725-2.681 27.312 7.659 30.324 23.076 3.012 15.418-5.685 30.111-19.409 32.792-13.724 2.682-27.312-7.659-30.324-23.076z"/><path fill="#FFD8EC" d="M71.308 235.101c-.253.327-.491.539-.848 1.184-1.389 1.805-2.839 4.002-5.905 2.675-3.679-1.342-5.906-2.518-5.789-11.578.075-5.864 5.087-11.578 12.542-11.578s12.769 5.035 14.636 10.5c1.108 3.244.162 6.9-3.058 8.797-2.276 1.34-5.556.556-7.718-.965-1.461-1.028-2.519-.642-3.86.965zM77.027 207.034c.837-4.248 4.061-7.196 7.196-6.579 3.135.618 5 4.568 4.164 8.816-.837 4.249-4.061 7.197-7.196 6.579-3.134-.617-5-4.567-4.164-8.816zM64.427 204.078c-.814-3.877 1.064-7.558 4.191-8.215 3.127-.656 6.326 1.959 7.14 5.837.814 3.877-1.064 7.558-4.191 8.214-3.127.657-6.326-1.959-7.14-5.836zM54.187 209.356c-1.785-3.247-1.109-7.052 1.508-8.49 2.618-1.438 6.191.03 7.976 3.278 1.785 3.247 1.109 7.051-1.509 8.49-2.617 1.438-6.191-.031-7.975-3.278zM49.915 221.51c-2.883-1.423-4.231-4.589-3.009-7.066 1.223-2.476 4.557-3.331 7.44-1.907 2.883 1.423 4.231 4.59 3.008 7.066-1.222 2.476-4.556 3.331-7.439 1.907z"/><g><path fill="#E3579D" d="M216.489 226.608c3.229-16.528-6.094-32.28-20.807-35.154-14.713-2.875-29.279 8.21-32.508 24.738-3.229 16.528 6.095 32.281 20.807 35.155 14.713 2.874 29.279-8.211 32.508-24.739z"/><path fill="#FFA6D3" d="M216.882 224.596c3.012-15.418-5.685-30.111-19.409-32.792-13.724-2.682-27.311 7.659-30.323 23.076-3.012 15.417 5.685 30.111 19.409 32.792 13.724 2.681 27.311-7.659 30.323-23.076z"/><path fill="#FFD8EC" d="M190.8 236.622c.254.327.491.539.849 1.184 1.389 1.806 2.839 4.002 5.905 2.676 3.679-1.342 5.906-2.518 5.789-11.578-.075-5.865-5.088-11.578-12.543-11.578-7.455 0-12.768 5.035-14.635 10.5-1.108 3.244-.162 6.9 3.057 8.796 2.277 1.341 5.557.556 7.719-.965 1.461-1.027 2.519-.641 3.859.965zM185.082 208.556c-.837-4.248-4.061-7.196-7.196-6.579s-5.001 4.568-4.164 8.816c.836 4.248 4.061 7.196 7.195 6.579 3.135-.617 5.001-4.568 4.165-8.816zM197.682 205.6c.813-3.878-1.065-7.559-4.191-8.215-3.127-.656-6.327 1.959-7.14 5.837-.814 3.877 1.064 7.558 4.191 8.214 3.126.656 6.326-1.959 7.14-5.836zM207.922 210.878c1.785-3.248 1.109-7.052-1.509-8.49-2.617-1.439-6.191.03-7.975 3.277-1.785 3.248-1.109 7.052 1.508 8.49 2.618 1.439 6.191-.03 7.976-3.277zM212.194 223.032c2.883-1.423 4.231-4.59 3.008-7.066-1.222-2.477-4.556-3.331-7.439-1.908-2.883 1.424-4.231 4.59-3.009 7.067 1.223 2.476 4.557 3.331 7.44 1.907z"/></g><g><ellipse cx="92.535" cy="32.965" fill="#FFA6D3" stroke="#E3579D" stroke-linecap="square" stroke-miterlimit="3" stroke-width="2" rx="30.874" ry="28.467" vector-effect="non-scaling-stroke"/><path fill="#FFA6D3" stroke="#E3579D" stroke-linecap="square" stroke-miterlimit="3" stroke-width="2" d="M187.584 72.635c7.422-14.744 26.164-20.314 41.827-12.43 15.662 7.885 22.352 26.257 14.93 41.001-7.422 14.745-26.164 20.315-41.827 12.43-15.662-7.884-22.352-26.256-14.93-41.001z" vector-effect="non-scaling-stroke"/><ellipse cx="93.188" cy="37.303" fill="#E3579D" rx="20.573" ry="21.234" vector-effect="non-scaling-stroke"/><ellipse cx="214.179" cy="89.404" fill="#E3579D" rx="20.573" ry="21.234" vector-effect="non-scaling-stroke"/><path fill="#FFA6D3" d="M90.605 155.985c-19.055-13.508-35.847-32.818-36.663-53.309-1.327-33.284 33.937-69.711 75.738-69.711 41.802 0 81.528 31.663 82.493 69.711.391 15.418-.422 37.899-9.648 49.45-11.578 15.256-19.207 18.286-34.734 22.191-13.156 3.308-29.126.573-38.111-1.93-14.49-4.036-27.022-7.858-39.075-16.402z"/><path fill="#FFBDDE" d="M91.721 151.348c-18.113-12.998-34.074-31.581-34.851-51.3-1.261-32.029 32.259-67.083 71.993-67.083 39.734 0 77.496 30.47 78.413 67.083.372 14.837-.401 36.471-9.171 47.586-11.005 14.681-18.256 17.597-33.016 21.355-12.505 3.183-27.685.551-36.226-1.857-13.774-3.884-25.685-7.562-37.142-15.784z"/><g><path fill="#231F20" d="M108.251 90.503c2.632-3.35 6.654-4.589 8.976-2.764 2.323 1.824 2.072 6.025-.559 9.375-2.631 3.35-6.653 4.589-8.976 2.765-2.323-1.824-2.072-6.025.559-9.376z"/><circle cx="114.243" cy="90.859" r="2.412" fill="#FFF" vector-effect="non-scaling-stroke"/><circle cx="109.901" cy="93.271" r=".965" fill="#FFF" vector-effect="non-scaling-stroke"/></g><g><path fill="#231F20" d="M154.185 112.842c1.192-4.09 4.462-6.739 7.298-5.912 2.835.827 4.169 4.818 2.977 8.908-1.193 4.09-4.463 6.739-7.298 5.912-2.836-.827-4.169-4.818-2.977-8.908z"/><path fill="#FFF" d="M158.317 112.02a2.413 2.413 0 014.476-1.799 2.412 2.412 0 01-4.476 1.799zM161.107 115.822a.966.966 0 011.791-.72.966.966 0 01-1.791.72z"/></g><g><defs><filter id="b" width="400%" height="400%" x="-200%" y="-200%" color-interpolation-filters="sRGB" filterUnits="objectBoundingBox"><feGaussianBlur xmlns="http://www.w3.org/2000/svg" in="SourceGraphic"/><feOffset xmlns="http://www.w3.org/2000/svg" dx="4" dy="4" result="pf_100_offsetBlur"/><feFlood xmlns="http://www.w3.org/2000/svg" flood-color="#FFD3E9" flood-opacity="1"/><feComposite xmlns="http://www.w3.org/2000/svg" in2="pf_100_offsetBlur" operator="in" result="pf_100_dropShadow"/><feBlend xmlns="http://www.w3.org/2000/svg" in="SourceGraphic" in2="pf_100_dropShadow"/></filter></defs><g filter="url(#b)"><path fill="#FFF" d="M80.263 115.037c5.511-13.396 27.904-16.899 49.973-7.819 22.07 9.081 35.513 27.328 30.002 40.724-5.512 13.395-27.904 16.899-49.974 7.819-22.069-9.081-35.513-27.328-30.001-40.724z"/></g><path stroke="#8E0F4F" stroke-linecap="square" stroke-miterlimit="3" stroke-width="2" d="M128.233 122.216l-8.683 20.261" vector-effect="non-scaling-stroke"/><path fill="none" stroke="#8E0F4F" stroke-linecap="square" stroke-miterlimit="3" stroke-width="2" d="M104.112 132.829c2.532 9.884 7.697 13.119 15.438 9.648M136.916 147.302c-9.054 4.44-14.814 2.861-17.366-4.825" vector-effect="non-scaling-stroke"/></g><g><path fill="#8E0F4F" d="M128.233 100.99c5.382.874 9.604 2.298 14.472 5.789 5.279 3.84 7.218 7.387 5.789 10.613-1.396 3.272-4.602 5.533-9.648 6.754-3.718 1.182-7.568 1.513-11.578.965-2.668-1.93-3.993-3.313-6.754-7.719-1.848-3.453-3.447-9.554-2.894-12.543.597-1.947 1.572-3.224 2.894-3.859 2.713-.816 4.915-.482 7.719 0z"/><path fill="#E3579D" d="M128.233 100.99c5.382.874 9.604 3.263 14.472 6.754 4.96 4.666 4.372 8.058 2.895 9.648-.965 1.892-4.289 2.955-6.754 3.859-3.867 1.131-6.603 1.514-10.613.965-2.683-1.485-4.696-3.814-5.789-5.789-2.299-3.09-4.99-7.929-4.824-11.578.597-1.947 1.572-3.224 2.894-3.859 2.713-.816 4.915-.482 7.719 0z"/><path fill="#FFF" d="M127.422 105.909c.815-1.92 4.661-2.127 8.582-.461 3.921 1.666 6.442 4.577 5.626 6.498-.816 1.92-4.662 2.127-8.583.461-3.921-1.666-6.441-4.577-5.625-6.498z"/></g></g><g><path fill="#BF4D86" d="M153.967 176.246c1.647 4.112 2.537 5.447 2.697 9.778.614 9.41.895 17.265.869 23.537-.004 6.135-1.231 12.781-3.651 19.91l-23.553 11.732c-.946 1.479-2.163 2.391-3.625 2.71-2.182.002-4.299-3.01-6.323-9.062-.021-4.809 1.485-9.324 4.546-13.571 1.958-3.917 4.361-8.723 5.454-14.476.659-9.18 2.172-18.522 4.568-28.055l19.018-2.503z"/><path fill="#FFBDDE" d="M153.882 176.246c1.333 7.831 2.001 12.485 1.861 19.734.384 20.137-.151 25.177-1.861 33.491.477 1.702.768 3.22.899 4.527.293 2.698-.625 5.12-2.727 7.238-3.066 3.34-5.792 4.25-8.151 2.703-.529.829-1.143 1.441-1.813 1.808-.852.73-2.37 1.038-4.528.898-1.929.321-7.052-3.003-7.233-5.442-1.495.203-3.313-.696-5.428-2.724-1.573-4.156-.379-7.757 1.827-10.86 1.336-2.487 2.538-5.493 3.635-9.047l2.743-18.1 1.843-21.723 18.933-2.503z"/><path fill="#8E0F4F" d="M143.013 233.98c1.123 3.588 1.411 6.917.89 9.959-.341.98-.955 1.592-1.813 1.808 1.49-3.708 1.761-7.594.923-11.767zM133.058 232.155c-1.732 4.014-2.208 6.005-2.729 9.048-.494.059-.351.139-.906-.002.629-4.1 1.028-5.967 3.635-9.046z"/></g><g><path fill="#E3579D" d="M102.183 171.422a40.077 40.077 0 00-2.895 13.508c-.67 10.028-.982 18.399-.965 25.085-.004 6.539 1.292 13.624 3.86 21.226l25.085 12.543c1.005 1.578 2.301 2.552 3.86 2.895 2.325.005 4.586-3.201 6.753-9.649.03-5.125-1.568-9.94-4.824-14.472-2.08-4.178-4.634-9.304-5.789-15.437-.687-9.786-2.286-19.746-4.824-29.91l-20.261-5.789z"/><path fill="#FFBDDE" d="M102.183 171.422c-1.433 8.345-2.067 16.395-1.93 24.121-.441 21.462.121 26.834 1.93 35.698-.512 1.814-.824 3.431-.965 4.824-.317 2.875.658 5.458 2.894 7.719 3.263 3.565 6.167 4.539 8.684 2.895.563.884 1.215 1.537 1.929 1.929.907.78 2.525 1.111 4.825.965 2.055.345 7.521-3.189 7.718-5.789 1.593.219 3.532-.736 5.789-2.894 1.684-4.427.417-8.267-1.929-11.578-1.42-2.653-2.697-5.859-3.86-9.649l-2.894-19.296-1.93-23.156-20.261-5.789z"/><path fill="#8E0F4F" d="M113.761 236.065c-1.204 3.823-1.516 7.37-.965 10.614.362 1.045 1.015 1.698 1.929 1.929-1.582-3.954-1.865-8.096-.964-12.543zM124.374 234.136c1.839 4.281 2.343 6.404 2.894 9.648.526.064.373.149.965 0-.663-4.372-1.085-6.362-3.859-9.648z"/></g></g></svg>