<svg xmlns="http://www.w3.org/2000/svg" style="isolation:isolate" viewBox="0 0 256 256"><defs><clipPath id="a"><path d="M0 0h256v256H0z"/></clipPath></defs><g clip-path="url(#a)"><path fill="#996533" d="M92.585 155.005c-3.453 6.009-5.443 11.353-6 16-1.506 7.325-3.162 13.002-5 17-1.191 2.666-3.181 5.009-6 7l12 52 17-11 38-4c14.034 10.674 23.711 17.017 31 19l10-56c-10.047-.078-17.998-7.241-19-19l-72-21z"/><ellipse cx="129.475" cy="210.005" fill="#BA936F" rx="18.111" ry="29" vector-effect="non-scaling-stroke"/><path fill="#825324" d="M40.96 228.626c-3.347-17.131 6.317-33.457 21.566-36.436 15.249-2.979 30.346 8.51 33.693 25.641 3.347 17.13-6.317 33.457-21.566 36.436-15.249 2.979-30.346-8.51-33.693-25.641z"/><path fill="#996533" d="M40.553 226.54c-3.122-15.979 5.892-31.209 20.116-33.987 14.225-2.779 28.307 7.938 31.429 23.917 3.122 15.98-5.892 31.209-20.117 33.988-14.224 2.779-28.307-7.938-31.428-23.918z"/><path fill="#BA936F" d="M67.585 239.005c-.262.339-.508.559-.879 1.227-1.44 1.872-2.943 4.148-6.121 2.773-3.812-1.39-6.12-2.609-6-12 .078-6.078 5.273-12 13-12s13.235 5.219 15.169 10.883c1.149 3.362.169 7.152-3.169 9.117-2.359 1.39-5.758.576-8-1-1.514-1.065-2.61-.665-4 1zM73.513 209.916c.867-4.403 4.208-7.459 7.458-6.819 3.249.64 5.183 4.734 4.315 9.137-.867 4.403-4.208 7.459-7.457 6.819-3.25-.64-5.183-4.734-4.316-9.137zM60.453 206.852c-.843-4.019 1.103-7.834 4.344-8.514 3.241-.681 6.557 2.03 7.4 6.049.844 4.019-1.103 7.834-4.343 8.514-3.241.68-6.557-2.031-7.401-6.049zM49.84 212.322c-1.85-3.366-1.15-7.309 1.563-8.799 2.713-1.491 6.417.031 8.266 3.397 1.85 3.365 1.15 7.308-1.563 8.799-2.713 1.491-6.417-.031-8.266-3.397zM45.412 224.92c-2.988-1.476-4.386-4.758-3.118-7.324 1.267-2.567 4.722-3.453 7.71-1.977 2.989 1.475 4.386 4.757 3.118 7.324-1.267 2.566-4.722 3.452-7.71 1.977z"/><g><path fill="#825324" d="M165.141 213.39c7.155-15.92 24.47-23.674 38.642-17.304 14.172 6.37 19.868 24.466 12.712 40.387-7.155 15.92-24.47 23.674-38.642 17.304-14.172-6.37-19.868-24.466-12.712-40.387z"/><path fill="#996533" d="M166.012 211.452c6.675-14.85 22.826-22.083 36.046-16.141 13.219 5.941 18.532 22.822 11.858 37.672-6.675 14.851-22.827 22.083-36.046 16.142-13.219-5.942-18.533-22.823-11.858-37.673z"/><path fill="#BA936F" d="M180.891 237.235c-.41.125-.738.163-1.426.494-2.256.698-4.798 1.689-6.599-1.268-2.31-3.337-3.492-5.664 2.027-13.263 3.573-4.918 11.233-6.755 17.543-2.294 6.309 4.46 7.794 11.9 6.105 17.642-1.003 3.409-3.991 5.937-7.851 5.616-2.728-.227-5.035-2.854-5.955-5.435-.622-1.743-1.748-2.049-3.844-1.492zM202.523 216.903c3.249-3.095 7.742-3.661 10.026-1.263 2.284 2.397 1.499 6.857-1.75 9.952-3.25 3.095-7.743 3.661-10.026 1.263-2.284-2.398-1.5-6.857 1.75-9.952zM193.627 206.862c1.631-3.768 5.423-5.76 8.462-4.445 3.039 1.316 4.182 5.443 2.551 9.212-1.631 3.768-5.422 5.76-8.461 4.445-3.039-1.316-4.183-5.443-2.552-9.212zM181.803 205.203c.432-3.817 3.28-6.632 6.356-6.283 3.076.348 5.221 3.729 4.789 7.545-.432 3.817-3.28 6.632-6.356 6.283-3.076-.348-5.222-3.729-4.789-7.545zM170.915 212.934c-1.588-2.93-.835-6.416 1.682-7.781 2.516-1.364 5.849-.093 7.437 2.837 1.589 2.93.835 6.416-1.681 7.78-2.516 1.365-5.849.094-7.438-2.836z"/></g><g><ellipse cx="89.585" cy="29.5" fill="#996533" stroke="#7A4F20" stroke-linecap="square" stroke-miterlimit="3" stroke-width="2" rx="32" ry="29.505" vector-effect="non-scaling-stroke"/><path fill="#996533" stroke="#7A4F20" stroke-linecap="square" stroke-miterlimit="3" stroke-width="2" d="M188.1 70.617c7.693-15.282 27.118-21.055 43.352-12.883 16.233 8.171 23.167 27.213 15.474 42.495-7.693 15.283-27.118 21.056-43.352 12.884-16.233-8.172-23.167-27.214-15.474-42.496z" vector-effect="non-scaling-stroke"/><ellipse cx="90.262" cy="33.997" fill="#C9AB8D" rx="21.323" ry="22.008" vector-effect="non-scaling-stroke"/><ellipse cx="215.665" cy="87.997" fill="#C9AB8D" rx="21.323" ry="22.008" vector-effect="non-scaling-stroke"/><path fill="#7A4F20" d="M87.585 157.005c-19.75-14-37.153-34.014-38-55.252C48.21 67.255 84.76 29.5 128.085 29.5c43.326 0 84.5 32.818 85.5 72.253.406 15.98-.437 39.28-10 51.252-12 15.813-19.906 18.953-36 23-13.635 3.429-30.187.594-39.5-2-15.019-4.183-28.007-8.144-40.5-17z"/><path fill="#996533" d="M88.742 152.199c-18.774-13.472-35.316-32.732-36.121-53.17C51.314 65.832 86.056 29.5 127.239 29.5c41.182 0 80.321 31.581 81.271 69.529.385 15.378-.415 37.8-9.505 49.321-11.407 15.216-18.922 18.239-34.22 22.133-12.961 3.3-28.694.571-37.546-1.925-14.277-4.025-26.623-7.837-38.497-16.359z"/><g><path fill="#231F20" d="M105.875 89.136c2.727-3.472 6.896-4.756 9.303-2.865 2.408 1.891 2.148 6.245-.579 9.717-2.728 3.473-6.896 4.757-9.304 2.866-2.407-1.891-2.147-6.245.58-9.718z"/><circle cx="112.085" cy="89.505" r="2.5" fill="#FFF" vector-effect="non-scaling-stroke"/><circle cx="107.585" cy="92.005" r="1" fill="#FFF" vector-effect="non-scaling-stroke"/></g><g><path fill="#231F20" d="M153.483 112.29c1.236-4.239 4.626-6.985 7.564-6.128 2.939.857 4.322 4.994 3.086 9.233-1.236 4.238-4.625 6.984-7.564 6.127-2.939-.857-4.322-4.994-3.086-9.232z"/><path fill="#FFF" d="M157.766 111.437a2.5 2.5 0 114.638-1.863 2.5 2.5 0 01-4.638 1.863zM160.658 115.378a1 1 0 111.858-.745 1 1 0 01-1.858.745z"/></g><g><defs><filter id="b" width="400%" height="400%" x="-200%" y="-200%" color-interpolation-filters="sRGB" filterUnits="objectBoundingBox"><feGaussianBlur xmlns="http://www.w3.org/2000/svg" in="SourceGraphic"/><feOffset xmlns="http://www.w3.org/2000/svg" dx="4" dy="4" result="pf_100_offsetBlur"/><feFlood xmlns="http://www.w3.org/2000/svg" flood-color="#BA936F" flood-opacity="1"/><feComposite xmlns="http://www.w3.org/2000/svg" in2="pf_100_offsetBlur" operator="in" result="pf_100_dropShadow"/><feBlend xmlns="http://www.w3.org/2000/svg" in="SourceGraphic" in2="pf_100_dropShadow"/></filter></defs><g filter="url(#b)"><path fill="#C9AB8D" d="M76.866 114.565c5.712-13.884 28.921-17.516 51.796-8.104 22.874 9.411 36.807 28.324 31.095 42.208-5.712 13.884-28.921 17.515-51.796 8.104-22.874-9.412-36.807-28.324-31.095-42.208z"/></g><path stroke="#270F03" stroke-linecap="square" stroke-miterlimit="3" stroke-width="2" d="M126.585 122.005l-9 21" vector-effect="non-scaling-stroke"/><path fill="none" stroke="#270F03" stroke-linecap="square" stroke-miterlimit="3" stroke-width="2" d="M101.585 133.005c2.624 10.244 7.978 13.598 16 10M135.585 148.005c-9.385 4.603-15.355 2.966-18-5" vector-effect="non-scaling-stroke"/></g><g><path fill="#270F03" d="M126.585 100.005c5.578.907 9.954 2.382 15 6 5.471 3.98 7.481 7.657 6 11-1.447 3.392-4.77 5.735-10 7-3.854 1.226-7.844 1.569-12 1-2.765-2-4.139-3.433-7-8-1.916-3.579-3.573-9.902-3-13 .62-2.018 1.63-3.342 3-4 2.812-.846 5.094-.5 8 0z"/><path fill="#3C2313" d="M126.585 100.005c5.578.907 9.954 3.382 15 7 5.141 4.836 4.532 8.352 3 10-1 1.961-4.445 3.063-7 4-4.008 1.172-6.844 1.569-11 1-2.781-1.539-4.867-3.953-6-6-2.383-3.203-5.172-8.218-5-12 .62-2.018 1.63-3.342 3-4 2.812-.846 5.094-.5 8 0z"/><path fill="#FFF" d="M125.744 105.104c.846-1.991 4.832-2.205 8.895-.478 4.064 1.726 6.677 4.744 5.831 6.734-.845 1.991-4.831 2.205-8.895.478-4.064-1.726-6.676-4.744-5.831-6.734z"/></g></g><g><path fill="#7A4F20" d="M153.258 178.005c1.707 4.261 2.629 5.646 2.795 10.135.636 9.752.927 17.893.901 24.395-.005 6.358-1.276 13.246-3.784 20.635l-24.413 12.16c-.979 1.533-2.241 2.479-3.757 2.809-2.261.002-4.455-3.119-6.553-9.392-.022-4.985 1.539-9.664 4.712-14.067 2.029-4.059 4.52-9.04 5.652-15.003.683-9.515 2.252-19.198 4.736-29.077l19.711-2.595z"/><path fill="#996533" d="M153.17 178.005c1.381 8.117 2.073 12.941 1.929 20.454.397 20.87-.157 26.094-1.929 34.711.494 1.764.795 3.338.931 4.693.303 2.796-.648 5.306-2.826 7.501-3.178 3.462-6.003 4.405-8.449 2.802-.548.859-1.184 1.493-1.879 1.874-.883.756-2.456 1.076-4.693.931-1.999.332-7.309-3.113-7.497-5.641-1.549.211-3.433-.721-5.625-2.823-1.631-4.308-.393-8.04 1.894-11.256 1.384-2.577 2.63-5.694 3.767-9.377l2.843-18.76 1.911-22.514 19.623-2.595z"/><path fill="#7A4F20" d="M141.904 237.844c1.165 3.719 1.463 7.169.922 10.322-.353 1.016-.989 1.65-1.879 1.874 1.545-3.843 1.826-7.871.957-12.196zM131.586 235.952c-1.795 4.161-2.288 6.225-2.829 9.378-.511.061-.363.144-.938-.001.651-4.251 1.065-6.185 3.767-9.377z"/></g><g><path fill="#7A4F20" d="M99.585 173.005a41.551 41.551 0 00-3 14c-.694 10.394-1.018 19.071-1 26-.005 6.778 1.339 14.121 4 22l26 13c1.042 1.636 2.385 2.646 4 3 2.41.006 4.754-3.317 7-10 .032-5.312-1.625-10.302-5-15-2.156-4.33-4.802-9.643-6-16-.712-10.142-2.369-20.466-5-31l-21-6z"/><path fill="#996533" d="M99.585 173.005c-1.485 8.649-2.142 16.992-2 25-.457 22.245.125 27.813 2 37-.53 1.88-.853 3.556-1 5-.328 2.98.682 5.657 3 8 3.381 3.695 6.391 4.705 9 3 .584.917 1.26 1.594 2 2 .94.808 2.616 1.151 5 1 2.131.358 7.796-3.305 8-6 1.651.227 3.661-.763 6-3 1.745-4.588.432-8.568-2-12-1.471-2.749-2.794-6.072-4-10l-3-20-2-24-21-6z"/><path fill="#7A4F20" d="M111.585 240.005c-1.247 3.962-1.571 7.638-1 11 .375 1.084 1.052 1.76 2 2-1.64-4.098-1.933-8.391-1-13zM122.585 238.005c1.907 4.438 2.429 6.638 3 10 .545.067.387.155 1 0-.687-4.531-1.125-6.593-4-10z"/></g></g></svg>
